<svg aria-hidden="true" style="width:0;height:0;position:absolute;overflow:hidden" xmlns="http://www.w3.org/2000/svg"><defs><symbol id="btn-icon" viewBox="0 0 22 32"><path d="m14.019 17.062-8.5 8.5a1.493 1.493 0 0 1-2.119 0L1.987 24.15a1.495 1.495 0 0 1 0-2.119l6.025-6.025-6.025-6.025a1.495 1.495 0 0 1 0-2.119l1.406-1.425a1.493 1.493 0 0 1 2.119 0l8.5 8.5c.594.588.594 1.538.006 2.125z"/></symbol><symbol id="logo" viewBox="0 0 30 32"><path d="M15.212 17.083c1.428-3.791-1.526-5.858-3.446-7.237-.394-.295-.738-.542-1.034-.788A3.425 3.425 0 0 1 9.6 7.335c-.197-.64-.197-1.378-.049-2.018V5.12c0-.049-.049-.148-.098-.197s-.098-.098-.197-.098h-.197a6.7 6.7 0 0 0-1.822 1.034c-.542.394-.935.886-1.231 1.477s-.443 1.231-.443 1.871c-.345.295-.689.64-.985.985-.492.689-.738 1.477-.689 2.314-.591.542-1.034 1.231-1.28 1.969s-.295 1.674-.148 2.412c-.246.148-.443.345-.542.591s-.098.542-.049.788.246.492.443.64.492.246.788.246h.049v2.166c0 .197.098.443.246.591s.345.246.591.246h.64l1.034 9.058c0 .197.098.394.295.542.148.148.345.197.542.197h4.382c.197 0 .394-.098.542-.197s.246-.345.295-.542l1.034-9.058h.64c.246 0 .443-.098.591-.246s.246-.345.246-.591v-2.117h.049c.345 0 .64-.148.886-.345s.394-.542.394-.886c0-.148-.049-.345-.098-.492 0-.148-.098-.295-.246-.394zM5.711 10.24c.542 1.969 2.609 2.757 4.48 3.446.049.049.098.049.148.049h.197c.049 0 .098-.049.148-.098s.098-.098.098-.148c0-.049.049-.098.049-.148s0-.098-.049-.148c-.049-.049-.049-.098-.098-.148s-.098-.049-.148-.049c-2.018-.738-3.938-1.477-4.086-3.495-.049-.542.049-1.132.295-1.625s.591-.935 1.034-1.28c.295-.246.591-.443.886-.591v.738c.049.591.197 1.132.492 1.674.246.542.64.985 1.083 1.329.295.246.689.542 1.132.837.985.689 2.068 1.477 2.806 2.511.394.542.591 1.182.689 1.822.049.64 0 1.329-.295 1.92h-1.625c-3.397 0-7.286-.935-8.025-3.495a3.03 3.03 0 0 1 0-1.625c.049-.64.394-1.132.788-1.477zm3.052 12.455 1.231 1.231-1.231 1.231-1.231-1.231 1.231-1.231zm2.806 3.2-1.034 1.034-1.231-1.231 1.231-1.231 1.083 1.034-.049.394zm-2.806 2.807-1.231-1.231 1.231-1.231 1.231 1.231-1.231 1.231zm-.591-3.004-1.231 1.231-1.034-1.034-.049-.345 1.083-1.034 1.231 1.182zm-1.821 1.773-.246.246-.049-.542.295.295zm-.099 1.28.689-.689 1.378 1.378c0 .049 0 .049.049.098H6.35l-.098-.788zm4.283-.689.689.689-.098.738H9.058l1.477-1.428zm.837-.345-.246-.246.295-.295-.049.542zm.345-3.2-.64-.64.788-.788-.148 1.428zm-1.182-1.182-1.182-1.132h2.363l-1.182 1.132zm-3.593 0L5.76 22.203h2.363l-1.182 1.132zm3.987 7.828H6.547l-.148-.886h4.677l-.148.886c.049 0 .049 0 0 0 .049 0 0 0 0 0zm3.397-12.751h-1.428c-.049 0-.098.049-.148.098s-.098.098-.098.148-.049.098-.049.148 0 .098.049.148c0 .049.049.098.098.148s.098.049.148.098h.591v2.166H3.987V19.2h7.335a.27.27 0 0 0 .246-.148c.049-.049.098-.148.098-.246s-.049-.197-.098-.246-.148-.098-.246-.148H2.953c-.049 0-.098-.049-.148-.098s-.098-.098-.098-.148c-.049-.049-.049-.098-.049-.197 0-.049 0-.148.049-.197s.049-.098.098-.148.098-.098.148-.098c.049 0 .148-.049.197 0h.837a.27.27 0 0 0 .246-.148c.049-.049.098-.148.098-.246s-.049-.197-.098-.246a.272.272 0 0 0-.246-.148h-.738c-.098-.542-.098-1.132.049-1.674s.394-1.083.738-1.526c.246.788.935 1.871 2.609 2.757 1.575.788 3.643 1.231 6.154 1.231h1.674c.049 0 .098.049.148.098s.098.098.098.148c.049.049.049.098.049.197 0 .049 0 .148-.049.197s-.049.098-.098.148-.098.098-.148.098h-.148zM18.018 31.409c-.886 0-1.526-.049-2.018-.197-.492-.098-.886-.197-1.28-.394-.345-.148-.591-.345-.837-.542a2.463 2.463 0 0 1-.837-1.871c0-.443.098-.886.246-1.28.295-.689.886-1.182 1.772-1.575.738-.345 1.575-.443 2.658-.443.935 0 1.871.098 2.708.295l.197.049-.148 2.117h-.246c-.246 0-.542 0-.788-.049h-.591c-.985 0-2.117.148-2.117.788 0 .295.098.492.345.64.246.197.689.246 1.28.246s1.132-.049 1.723-.148l.295-.049.049 2.117-.197.049c-.542.148-1.231.246-2.215.246zm-.295-5.809c-1.034 0-1.772.148-2.462.443-.788.345-1.231.738-1.477 1.329-.148.345-.246.689-.246 1.083 0 .591.197 1.083.64 1.477.197.148.443.295.738.443.345.148.738.295 1.182.394.492.148 1.083.197 1.92.197s1.428-.049 1.92-.197l-.049-1.132c-.492.049-1.034.098-1.526.098-.443 0-1.083-.049-1.526-.345-.394-.246-.591-.542-.591-1.034 0-.837.886-1.28 2.609-1.28h1.182l.098-1.231a12.9 12.9 0 0 0-2.412-.246z"/><path d="M24.763 31.705a11.05 11.05 0 0 1-1.477-.098c-.394-.049-.837-.148-1.231-.295s-.788-.295-1.083-.591c-.295-.197-.492-.492-.738-.886a3.246 3.246 0 0 1-.295-1.329c0-.492.098-.935.246-1.428.197-.394.394-.788.738-1.083.837-.738 1.969-1.083 3.495-1.083.689 0 1.329.148 2.068.394.738.345 1.182.788 1.477 1.378.197.345.246.738.246 1.132l-.049 1.182h-4.48c.098.148.246.295.394.394.295.148.738.246 1.329.246s1.231-.148 2.018-.492h.64l-.098 1.772-.049.049c-.246.246-.738.394-1.329.542-.542.148-1.132.197-1.822.197zm-.246-6.351c-1.378 0-2.462.295-3.2.985-.246.197-.443.492-.64.886-.148.394-.197.788-.197 1.231 0 .394.049.788.246 1.132s.345.591.591.738c.246.246.591.394.935.492.394.148.738.246 1.132.295.345.049.837.098 1.378.098.64 0 1.182-.049 1.723-.197.345-.098.837-.197 1.034-.394l.049-1.034c-.788.345-1.526.492-2.166.492s-1.182-.098-1.526-.345c-.394-.197-.64-.542-.738-.985l-.098-.295h4.726l.049-.689c0-.295-.098-.64-.197-.886-.197-.492-.591-.837-1.231-1.132s-1.28-.394-1.871-.394zm-1.28 2.658.049-.295c.049-.345.197-.591.394-.837.246-.246.542-.345.935-.345s.689.098.886.246c.148.148.295.443.295.935v.246l-2.56.049zm1.378-.984c-.246 0-.394.049-.542.246a.868.868 0 0 0-.197.246l1.428-.049a2.307 2.307 0 0 0-.148-.345 1.32 1.32 0 0 0-.542-.098z"/></symbol><symbol id="icon-Burger" viewBox="0 0 32 32"><path d="M26 11H6c-.6 0-1-.4-1-1s.4-1 1-1h20c.6 0 1 .4 1 1s-.4 1-1 1zM26 17H6c-.6 0-1-.4-1-1s.4-1 1-1h20c.6 0 1 .4 1 1s-.4 1-1 1zM26 23H6c-.6 0-1-.4-1-1s.4-1 1-1h20c.6 0 1 .4 1 1s-.4 1-1 1z"/></symbol><symbol id="close-button" viewBox="0 0 32 32"><path d="m17.253 16 7.369-7.369a.886.886 0 0 0-.047-1.207.89.89 0 0 0-1.206-.047L16 14.746 8.631 7.368A.892.892 0 0 0 7.369 8.63l7.378 7.369-7.378 7.369a.891.891 0 0 0-.05 1.304.89.89 0 0 0 1.304-.051l7.378-7.369 7.369 7.369a.885.885 0 0 0 1.206-.047.89.89 0 0 0 .047-1.206l-7.369-7.369z"/></symbol><symbol id="icon-hero-arrow" viewBox="0 0 84 32"><path fill="#fcfcfc" style="fill:var(--color1,#fcfcfc)" d="M83.045 17.051a2 2 0 0 0 0-2.828L70.317 1.495a2 2 0 1 0-2.828 2.828l11.314 11.314-11.314 11.314a2 2 0 1 0 2.828 2.828l12.728-12.728zm-81.414.586h80v-4h-80v4z"/></symbol><symbol id="icon-Frame-60" viewBox="0 0 82 32"><path d="M81.414 17.414a2 2 0 0 0 0-2.828L68.686 1.858a2 2 0 1 0-2.828 2.828L77.172 16 65.858 27.314a2 2 0 1 0 2.828 2.828l12.728-12.728zM0 18h80v-4H0v4z"/></symbol></defs></svg>