
<svg aria-hidden="true" style="position: absolute; width: 0; height: 0; overflow: hidden;" version="1.1" xmlns="http://www.w3.org/2000/svg" xmlns:xlink="http://www.w3.org/1999/xlink">
<defs>
<path d="M82.643 17.191c0.781-0.781 0.781-2.047 0-2.828l-12.728-12.728c-0.781-0.781-2.047-0.781-2.828 0s-0.781 2.047 0 2.828l11.314 11.314-11.314 11.314c-0.781 0.781-0.781 2.047 0 2.829s2.047 0.781 2.828 0l12.728-12.728zM0.76 17.777h80.469v-4h-80.469v4z"></path>
</symbol>
<symbol id="btn-icon" viewBox="0 0 22 32">
<path d="m14.019 17.062-8.5 8.5a1.493 1.493 0 0 1-2.119 0L1.987 24.15a1.495 1.495 0 0 1 0-2.119l6.025-6.025-6.025-6.025a1.495 1.495 0 0 1 0-2.119l1.406-1.425a1.493 1.493 0 0 1 2.119 0l8.5 8.5c.594.588.594 1.538.006 2.125z"/>
    </symbol>
       <path fill="#fcfcfc" style="fill: var(--color1, #fcfcfc)" d="M83.045 17.051c0.781-0.781 0.781-2.047 0-2.828l-12.728-12.728c-0.781-0.781-2.047-0.781-2.828 0s-0.781 2.047 0 2.828l11.314 11.314-11.314 11.314c-0.781 0.781-0.781 2.047 0 2.828s2.047 0.781 2.828 0l12.728-12.728zM1.631 17.637h80v-4h-80v4z"></path>
    </symbol>
    <symbol id="logo" viewBox="0 0 30 32">
<path d="M15.212 17.083c1.428-3.791-1.526-5.858-3.446-7.237-0.394-0.295-0.738-0.542-1.034-0.788-0.542-0.443-0.935-1.034-1.132-1.723-0.197-0.64-0.197-1.378-0.049-2.018v-0.197c0-0.049-0.049-0.148-0.098-0.197s-0.098-0.098-0.197-0.098h-0.197c-0.64 0.246-1.28 0.591-1.822 1.034-0.542 0.394-0.935 0.886-1.231 1.477s-0.443 1.231-0.443 1.871c-0.345 0.295-0.689 0.64-0.985 0.985-0.492 0.689-0.738 1.477-0.689 2.314-0.591 0.542-1.034 1.231-1.28 1.969s-0.295 1.674-0.148 2.412c-0.246 0.148-0.443 0.345-0.542 0.591s-0.098 0.542-0.049 0.788 0.246 0.492 0.443 0.64 0.492 0.246 0.788 0.246h0.049v2.166c0 0.197 0.098 0.443 0.246 0.591s0.345 0.246 0.591 0.246h0.64l1.034 9.058c0 0.197 0.098 0.394 0.295 0.542 0.148 0.148 0.345 0.197 0.542 0.197h4.382c0.197 0 0.394-0.098 0.542-0.197s0.246-0.345 0.295-0.542l1.034-9.058h0.64c0.246 0 0.443-0.098 0.591-0.246s0.246-0.345 0.246-0.591v-2.117h0.049c0.345 0 0.64-0.148 0.886-0.345s0.394-0.542 0.394-0.886c0-0.148-0.049-0.345-0.098-0.492 0-0.148-0.098-0.295-0.246-0.394zM5.711 10.24c0.542 1.969 2.609 2.757 4.48 3.446 0.049 0.049 0.098 0.049 0.148 0.049h0.197c0.049 0 0.098-0.049 0.148-0.098s0.098-0.098 0.098-0.148c0-0.049 0.049-0.098 0.049-0.148s0-0.098-0.049-0.148c-0.049-0.049-0.049-0.098-0.098-0.148s-0.098-0.049-0.148-0.049c-2.018-0.738-3.938-1.477-4.086-3.495-0.049-0.542 0.049-1.132 0.295-1.625s0.591-0.935 1.034-1.28c0.295-0.246 0.591-0.443 0.886-0.591v0.738c0.049 0.591 0.197 1.132 0.492 1.674 0.246 0.542 0.64 0.985 1.083 1.329 0.295 0.246 0.689 0.542 1.132 0.837 0.985 0.689 2.068 1.477 2.806 2.511 0.394 0.542 0.591 1.182 0.689 1.822 0.049 0.64 0 1.329-0.295 1.92h-1.625c-3.397 0-7.286-0.935-8.025-3.495-0.148-0.542-0.148-1.083 0-1.625 0.049-0.64 0.394-1.132 0.788-1.477zM8.763 22.695l1.231 1.231-1.231 1.231-1.231-1.231 1.231-1.231zM11.569 25.895l-1.034 1.034-1.231-1.231 1.231-1.231 1.083 1.034c0 0-0.049 0.394-0.049 0.394zM8.763 28.702l-1.231-1.231 1.231-1.231 1.231 1.231-1.231 1.231zM8.172 25.698l-1.231 1.231-1.034-1.034-0.049-0.345 1.083-1.034c0 0 1.231 1.182 1.231 1.182zM6.351 27.471l-0.246 0.246-0.049-0.542 0.295 0.295zM6.252 28.751l0.689-0.689 1.378 1.378c0 0.049 0 0.049 0.049 0.098h-2.018c0 0-0.098-0.788-0.098-0.788zM10.535 28.062l0.689 0.689-0.098 0.738h-2.068l1.477-1.428zM11.372 27.717l-0.246-0.246 0.295-0.295-0.049 0.542zM11.717 24.517l-0.64-0.64 0.788-0.788c0 0-0.148 1.428-0.148 1.428zM10.535 23.335l-1.182-1.132h2.363c0 0-1.182 1.132-1.182 1.132zM6.942 23.335l-1.182-1.132h2.363c0 0-1.182 1.132-1.182 1.132zM10.929 31.163h-4.382l-0.148-0.886h4.677l-0.148 0.886c0.049 0 0.049 0 0 0 0.049 0 0 0 0 0zM14.326 18.412h-1.428c-0.049 0-0.098 0.049-0.148 0.098s-0.098 0.098-0.098 0.148-0.049 0.098-0.049 0.148 0 0.098 0.049 0.148c0 0.049 0.049 0.098 0.098 0.148s0.098 0.049 0.148 0.098h0.591v2.166h-9.502v-2.166h7.335c0.098 0 0.197-0.049 0.246-0.148 0.049-0.049 0.098-0.148 0.098-0.246s-0.049-0.197-0.098-0.246-0.148-0.098-0.246-0.148h-8.369c-0.049 0-0.098-0.049-0.148-0.098s-0.098-0.098-0.098-0.148c-0.049-0.049-0.049-0.098-0.049-0.197 0-0.049 0-0.148 0.049-0.197s0.049-0.098 0.098-0.148 0.098-0.098 0.148-0.098c0.049 0 0.148-0.049 0.197 0h0.837c0.098 0 0.197-0.049 0.246-0.148 0.049-0.049 0.098-0.148 0.098-0.246s-0.049-0.197-0.098-0.246c-0.049-0.098-0.148-0.148-0.246-0.148h-0.738c-0.098-0.542-0.098-1.132 0.049-1.674s0.394-1.083 0.738-1.526c0.246 0.788 0.935 1.871 2.609 2.757 1.575 0.788 3.643 1.231 6.154 1.231h1.674c0.049 0 0.098 0.049 0.148 0.098s0.098 0.098 0.098 0.148c0.049 0.049 0.049 0.098 0.049 0.197 0 0.049 0 0.148-0.049 0.197s-0.049 0.098-0.098 0.148-0.098 0.098-0.148 0.098c0 0-0.148 0-0.148 0z"></path>
<path d="M18.018 31.409c-0.886 0-1.526-0.049-2.018-0.197-0.492-0.098-0.886-0.197-1.28-0.394-0.345-0.148-0.591-0.345-0.837-0.542-0.542-0.492-0.837-1.132-0.837-1.871 0-0.443 0.098-0.886 0.246-1.28 0.295-0.689 0.886-1.182 1.772-1.575 0.738-0.345 1.575-0.443 2.658-0.443 0.935 0 1.871 0.098 2.708 0.295l0.197 0.049-0.148 2.117h-0.246c-0.246 0-0.542 0-0.788-0.049-0.197 0-0.394 0-0.591 0-0.985 0-2.117 0.148-2.117 0.788 0 0.295 0.098 0.492 0.345 0.64 0.246 0.197 0.689 0.246 1.28 0.246s1.132-0.049 1.723-0.148l0.295-0.049 0.049 2.117-0.197 0.049c-0.542 0.148-1.231 0.246-2.215 0.246zM17.723 25.6c-1.034 0-1.772 0.148-2.462 0.443-0.788 0.345-1.231 0.738-1.477 1.329-0.148 0.345-0.246 0.689-0.246 1.083 0 0.591 0.197 1.083 0.64 1.477 0.197 0.148 0.443 0.295 0.738 0.443 0.345 0.148 0.738 0.295 1.182 0.394 0.492 0.148 1.083 0.197 1.92 0.197s1.428-0.049 1.92-0.197l-0.049-1.132c-0.492 0.049-1.034 0.098-1.526 0.098-0.443 0-1.083-0.049-1.526-0.345-0.394-0.246-0.591-0.542-0.591-1.034 0-0.837 0.886-1.28 2.609-1.28 0.197 0 0.394 0 0.64 0 0.148 0 0.345 0 0.542 0l0.098-1.231c-0.788-0.148-1.575-0.246-2.412-0.246z"></path>
<path d="M24.763 31.705c-0.591 0-1.132-0.049-1.477-0.098-0.394-0.049-0.837-0.148-1.231-0.295s-0.788-0.295-1.083-0.591c-0.295-0.197-0.492-0.492-0.738-0.886-0.197-0.443-0.295-0.886-0.295-1.329 0-0.492 0.098-0.935 0.246-1.428 0.197-0.394 0.394-0.788 0.738-1.083 0.837-0.738 1.969-1.083 3.495-1.083 0.689 0 1.329 0.148 2.068 0.394 0.738 0.345 1.182 0.788 1.477 1.378 0.197 0.345 0.246 0.738 0.246 1.132l-0.049 1.182h-4.48c0.098 0.148 0.246 0.295 0.394 0.394 0.295 0.148 0.738 0.246 1.329 0.246s1.231-0.148 2.018-0.492h0.64l-0.098 1.772-0.049 0.049c-0.246 0.246-0.738 0.394-1.329 0.542v0c-0.542 0.148-1.132 0.197-1.822 0.197zM24.517 25.354c-1.378 0-2.462 0.295-3.2 0.985-0.246 0.197-0.443 0.492-0.64 0.886-0.148 0.394-0.197 0.788-0.197 1.231 0 0.394 0.049 0.788 0.246 1.132s0.345 0.591 0.591 0.738c0.246 0.246 0.591 0.394 0.935 0.492 0.394 0.148 0.738 0.246 1.132 0.295 0.345 0.049 0.837 0.098 1.378 0.098 0.64 0 1.182-0.049 1.723-0.197 0.345-0.098 0.837-0.197 1.034-0.394l0.049-1.034c-0.788 0.345-1.526 0.492-2.166 0.492s-1.182-0.098-1.526-0.345c-0.394-0.197-0.64-0.542-0.738-0.985l-0.098-0.295h4.726l0.049-0.689c0-0.295-0.098-0.64-0.197-0.886-0.197-0.492-0.591-0.837-1.231-1.132s-1.28-0.394-1.871-0.394zM23.237 28.012l0.049-0.295c0.049-0.345 0.197-0.591 0.394-0.837 0.246-0.246 0.542-0.345 0.935-0.345s0.689 0.098 0.886 0.246c0.148 0.148 0.295 0.443 0.295 0.935v0.246l-2.56 0.049zM24.615 27.028c-0.246 0-0.394 0.049-0.542 0.246-0.098 0.098-0.148 0.148-0.197 0.246l1.428-0.049c-0.049-0.148-0.098-0.246-0.148-0.345-0.098-0.049-0.295-0.098-0.542-0.098z"></path>
</symbol>
<symbol id="icon-Burger" viewBox="0 0 32 32">
<path d="M26 11h-20c-0.6 0-1-0.4-1-1s0.4-1 1-1h20c0.6 0 1 0.4 1 1s-0.4 1-1 1z"></path>
<path d="M26 17h-20c-0.6 0-1-0.4-1-1s0.4-1 1-1h20c0.6 0 1 0.4 1 1s-0.4 1-1 1z"></path>
<path d="M26 23h-20c-0.6 0-1-0.4-1-1s0.4-1 1-1h20c0.6 0 1 0.4 1 1s-0.4 1-1 1z"></path>
</symbol>
<symbol id="close-button" viewBox="0 0 32 32">
<path d="M17.253 16l7.369-7.369c0.146-0.17 0.222-0.389 0.213-0.613s-0.101-0.436-0.26-0.594c-0.158-0.158-0.37-0.251-0.594-0.26s-0.442 0.067-0.612 0.213l-7.369 7.369-7.369-7.378c-0.167-0.167-0.394-0.261-0.631-0.261s-0.464 0.094-0.631 0.261c-0.167 0.167-0.261 0.394-0.261 0.631s0.094 0.464 0.261 0.631l7.378 7.369-7.378 7.369c-0.093 0.080-0.169 0.178-0.222 0.288s-0.083 0.23-0.088 0.353c-0.005 0.123 0.016 0.245 0.061 0.359s0.112 0.218 0.199 0.304c0.087 0.087 0.19 0.154 0.304 0.199s0.236 0.065 0.359 0.060c0.122-0.005 0.243-0.035 0.353-0.088s0.208-0.129 0.288-0.222l7.378-7.369 7.369 7.369c0.17 0.146 0.389 0.222 0.612 0.213s0.436-0.101 0.594-0.26c0.158-0.158 0.251-0.37 0.26-0.594s-0.067-0.442-0.213-0.612l-7.369-7.369z"></path>
</symbol>
<symbol id="icon-hero-arrow" viewBox="0 0 84 32">
   <path fill="#fcfcfc" style="fill: var(--color1, #fcfcfc)" d="M83.045 17.051c0.781-0.781 0.781-2.047 0-2.828l-12.728-12.728c-0.781-0.781-2.047-0.781-2.828 0s-0.781 2.047 0 2.828l11.314 11.314-11.314 11.314c-0.781 0.781-0.781 2.047 0 2.828s2.047 0.781 2.828 0l12.728-12.728zM1.631 17.637h80v-4h-80v4z"></path>
    </symbol>
</defs>
</svg>

